<mxfile host="app.diagrams.net" modified="2023-11-16T18:54:24.194Z" agent="Mozilla/5.0 (Windows NT 10.0; Win64; x64) AppleWebKit/537.36 (KHTML, like Gecko) Chrome/119.0.0.0 Safari/537.36" etag="RAunw_Elr8ZNQJ5xshdB" version="22.1.2" type="device">
  <diagram name="Page-1" id="gx2VC1enqEZNBokMVnNt">
    <mxGraphModel dx="1389" dy="902" grid="1" gridSize="10" guides="1" tooltips="1" connect="1" arrows="1" fold="1" page="1" pageScale="1" pageWidth="827" pageHeight="1169" math="0" shadow="0">
      <root>
        <mxCell id="0" />
        <mxCell id="1" parent="0" />
        <mxCell id="toLgnQUWT0Yu2J6poSD1-1" value="" style="whiteSpace=wrap;html=1;aspect=fixed;" vertex="1" parent="1">
          <mxGeometry x="160" y="240" width="790" height="790" as="geometry" />
        </mxCell>
        <mxCell id="toLgnQUWT0Yu2J6poSD1-2" value="Application" style="text;html=1;strokeColor=none;fillColor=none;align=center;verticalAlign=middle;whiteSpace=wrap;rounded=0;" vertex="1" parent="1">
          <mxGeometry x="90" y="990" width="60" height="30" as="geometry" />
        </mxCell>
        <mxCell id="toLgnQUWT0Yu2J6poSD1-11" style="rounded=0;orthogonalLoop=1;jettySize=auto;html=1;exitX=1;exitY=0.3333333333333333;exitDx=0;exitDy=0;exitPerimeter=0;entryX=0;entryY=0.5;entryDx=0;entryDy=0;endArrow=none;endFill=0;dashed=1;" edge="1" parent="1" source="toLgnQUWT0Yu2J6poSD1-3" target="toLgnQUWT0Yu2J6poSD1-7">
          <mxGeometry relative="1" as="geometry" />
        </mxCell>
        <mxCell id="toLgnQUWT0Yu2J6poSD1-3" value="User" style="shape=umlActor;verticalLabelPosition=bottom;verticalAlign=top;html=1;outlineConnect=0;" vertex="1" parent="1">
          <mxGeometry x="30" y="390" width="90" height="180" as="geometry" />
        </mxCell>
        <mxCell id="toLgnQUWT0Yu2J6poSD1-36" style="edgeStyle=orthogonalEdgeStyle;rounded=0;orthogonalLoop=1;jettySize=auto;html=1;exitX=1;exitY=0.5;exitDx=0;exitDy=0;entryX=0;entryY=0.5;entryDx=0;entryDy=0;" edge="1" parent="1" source="toLgnQUWT0Yu2J6poSD1-5" target="toLgnQUWT0Yu2J6poSD1-33">
          <mxGeometry relative="1" as="geometry" />
        </mxCell>
        <mxCell id="toLgnQUWT0Yu2J6poSD1-37" style="rounded=0;orthogonalLoop=1;jettySize=auto;html=1;exitX=1;exitY=1;exitDx=0;exitDy=0;entryX=0;entryY=0.5;entryDx=0;entryDy=0;" edge="1" parent="1" source="toLgnQUWT0Yu2J6poSD1-5" target="toLgnQUWT0Yu2J6poSD1-34">
          <mxGeometry relative="1" as="geometry" />
        </mxCell>
        <mxCell id="toLgnQUWT0Yu2J6poSD1-38" style="rounded=0;orthogonalLoop=1;jettySize=auto;html=1;exitX=0.5;exitY=1;exitDx=0;exitDy=0;entryX=0.5;entryY=0;entryDx=0;entryDy=0;" edge="1" parent="1" source="toLgnQUWT0Yu2J6poSD1-5" target="toLgnQUWT0Yu2J6poSD1-35">
          <mxGeometry relative="1" as="geometry" />
        </mxCell>
        <mxCell id="toLgnQUWT0Yu2J6poSD1-5" value="Identification" style="ellipse;whiteSpace=wrap;html=1;" vertex="1" parent="1">
          <mxGeometry x="570" y="260" width="120" height="80" as="geometry" />
        </mxCell>
        <mxCell id="toLgnQUWT0Yu2J6poSD1-12" style="rounded=0;orthogonalLoop=1;jettySize=auto;html=1;exitX=1;exitY=0.5;exitDx=0;exitDy=0;entryX=0;entryY=0.5;entryDx=0;entryDy=0;" edge="1" parent="1" source="toLgnQUWT0Yu2J6poSD1-7" target="toLgnQUWT0Yu2J6poSD1-8">
          <mxGeometry relative="1" as="geometry" />
        </mxCell>
        <mxCell id="toLgnQUWT0Yu2J6poSD1-13" style="rounded=0;orthogonalLoop=1;jettySize=auto;html=1;exitX=1;exitY=0.5;exitDx=0;exitDy=0;entryX=0;entryY=0.5;entryDx=0;entryDy=0;" edge="1" parent="1" source="toLgnQUWT0Yu2J6poSD1-7" target="toLgnQUWT0Yu2J6poSD1-9">
          <mxGeometry relative="1" as="geometry" />
        </mxCell>
        <mxCell id="toLgnQUWT0Yu2J6poSD1-16" style="rounded=0;orthogonalLoop=1;jettySize=auto;html=1;exitX=1;exitY=0.5;exitDx=0;exitDy=0;entryX=0;entryY=0.5;entryDx=0;entryDy=0;" edge="1" parent="1" source="toLgnQUWT0Yu2J6poSD1-7" target="toLgnQUWT0Yu2J6poSD1-15">
          <mxGeometry relative="1" as="geometry" />
        </mxCell>
        <mxCell id="toLgnQUWT0Yu2J6poSD1-32" style="rounded=0;orthogonalLoop=1;jettySize=auto;html=1;exitX=1;exitY=0.5;exitDx=0;exitDy=0;entryX=0;entryY=0.5;entryDx=0;entryDy=0;" edge="1" parent="1" source="toLgnQUWT0Yu2J6poSD1-7" target="toLgnQUWT0Yu2J6poSD1-31">
          <mxGeometry relative="1" as="geometry" />
        </mxCell>
        <mxCell id="toLgnQUWT0Yu2J6poSD1-7" value="Gestion des voyages" style="ellipse;whiteSpace=wrap;html=1;" vertex="1" parent="1">
          <mxGeometry x="210" y="470" width="120" height="80" as="geometry" />
        </mxCell>
        <mxCell id="toLgnQUWT0Yu2J6poSD1-8" value="Créer un nouveau voyage" style="ellipse;whiteSpace=wrap;html=1;" vertex="1" parent="1">
          <mxGeometry x="380" y="340" width="120" height="80" as="geometry" />
        </mxCell>
        <mxCell id="toLgnQUWT0Yu2J6poSD1-9" value="Télécharger un voyage déjà existant&amp;nbsp;" style="ellipse;whiteSpace=wrap;html=1;" vertex="1" parent="1">
          <mxGeometry x="440" y="430" width="120" height="80" as="geometry" />
        </mxCell>
        <mxCell id="toLgnQUWT0Yu2J6poSD1-10" value="" style="endArrow=none;dashed=1;html=1;dashPattern=1 3;strokeWidth=2;rounded=0;exitX=1;exitY=0.3333333333333333;exitDx=0;exitDy=0;exitPerimeter=0;entryX=0;entryY=0.5;entryDx=0;entryDy=0;edgeStyle=orthogonalEdgeStyle;" edge="1" parent="1" source="toLgnQUWT0Yu2J6poSD1-3" target="toLgnQUWT0Yu2J6poSD1-5">
          <mxGeometry width="50" height="50" relative="1" as="geometry">
            <mxPoint x="390" y="490" as="sourcePoint" />
            <mxPoint x="440" y="440" as="targetPoint" />
            <Array as="points">
              <mxPoint x="180" y="450" />
              <mxPoint x="180" y="300" />
            </Array>
          </mxGeometry>
        </mxCell>
        <mxCell id="toLgnQUWT0Yu2J6poSD1-17" style="rounded=0;orthogonalLoop=1;jettySize=auto;html=1;exitX=0;exitY=0.5;exitDx=0;exitDy=0;endArrow=none;endFill=0;dashed=1;dashPattern=8 8;" edge="1" parent="1" source="toLgnQUWT0Yu2J6poSD1-14">
          <mxGeometry relative="1" as="geometry">
            <mxPoint x="120" y="450" as="targetPoint" />
          </mxGeometry>
        </mxCell>
        <mxCell id="toLgnQUWT0Yu2J6poSD1-19" style="rounded=0;orthogonalLoop=1;jettySize=auto;html=1;exitX=1;exitY=0.5;exitDx=0;exitDy=0;entryX=0;entryY=0.5;entryDx=0;entryDy=0;" edge="1" parent="1" source="toLgnQUWT0Yu2J6poSD1-14" target="toLgnQUWT0Yu2J6poSD1-18">
          <mxGeometry relative="1" as="geometry" />
        </mxCell>
        <mxCell id="toLgnQUWT0Yu2J6poSD1-25" style="edgeStyle=orthogonalEdgeStyle;rounded=0;orthogonalLoop=1;jettySize=auto;html=1;exitX=1;exitY=0.5;exitDx=0;exitDy=0;entryX=0;entryY=0.5;entryDx=0;entryDy=0;" edge="1" parent="1" source="toLgnQUWT0Yu2J6poSD1-14" target="toLgnQUWT0Yu2J6poSD1-24">
          <mxGeometry relative="1" as="geometry" />
        </mxCell>
        <mxCell id="toLgnQUWT0Yu2J6poSD1-14" value="Gestion des points d&#39;intérêt" style="ellipse;whiteSpace=wrap;html=1;" vertex="1" parent="1">
          <mxGeometry x="190" y="775" width="120" height="80" as="geometry" />
        </mxCell>
        <mxCell id="toLgnQUWT0Yu2J6poSD1-15" value="Supprimer un de ses voyages" style="ellipse;whiteSpace=wrap;html=1;" vertex="1" parent="1">
          <mxGeometry x="430" y="530" width="120" height="80" as="geometry" />
        </mxCell>
        <mxCell id="toLgnQUWT0Yu2J6poSD1-22" style="edgeStyle=orthogonalEdgeStyle;rounded=0;orthogonalLoop=1;jettySize=auto;html=1;exitX=1;exitY=0.5;exitDx=0;exitDy=0;entryX=0;entryY=0.5;entryDx=0;entryDy=0;" edge="1" parent="1" source="toLgnQUWT0Yu2J6poSD1-18" target="toLgnQUWT0Yu2J6poSD1-21">
          <mxGeometry relative="1" as="geometry" />
        </mxCell>
        <mxCell id="toLgnQUWT0Yu2J6poSD1-23" style="edgeStyle=orthogonalEdgeStyle;rounded=0;orthogonalLoop=1;jettySize=auto;html=1;exitX=1;exitY=0.5;exitDx=0;exitDy=0;entryX=0;entryY=0.5;entryDx=0;entryDy=0;" edge="1" parent="1" source="toLgnQUWT0Yu2J6poSD1-18" target="toLgnQUWT0Yu2J6poSD1-20">
          <mxGeometry relative="1" as="geometry" />
        </mxCell>
        <mxCell id="toLgnQUWT0Yu2J6poSD1-48" style="edgeStyle=orthogonalEdgeStyle;rounded=0;orthogonalLoop=1;jettySize=auto;html=1;exitX=1;exitY=0.5;exitDx=0;exitDy=0;entryX=0;entryY=0.5;entryDx=0;entryDy=0;" edge="1" parent="1" source="toLgnQUWT0Yu2J6poSD1-18" target="toLgnQUWT0Yu2J6poSD1-47">
          <mxGeometry relative="1" as="geometry" />
        </mxCell>
        <mxCell id="toLgnQUWT0Yu2J6poSD1-18" value="Créer un point d&#39;intérêt" style="ellipse;whiteSpace=wrap;html=1;" vertex="1" parent="1">
          <mxGeometry x="390" y="765" width="120" height="80" as="geometry" />
        </mxCell>
        <mxCell id="toLgnQUWT0Yu2J6poSD1-20" value="Ajouter une description" style="ellipse;whiteSpace=wrap;html=1;" vertex="1" parent="1">
          <mxGeometry x="560" y="800" width="120" height="80" as="geometry" />
        </mxCell>
        <mxCell id="toLgnQUWT0Yu2J6poSD1-21" value="Prendre une photo" style="ellipse;whiteSpace=wrap;html=1;" vertex="1" parent="1">
          <mxGeometry x="560" y="720" width="120" height="80" as="geometry" />
        </mxCell>
        <mxCell id="toLgnQUWT0Yu2J6poSD1-24" value="Supprimer un point d&#39;intérêt" style="ellipse;whiteSpace=wrap;html=1;" vertex="1" parent="1">
          <mxGeometry x="390" y="845" width="120" height="80" as="geometry" />
        </mxCell>
        <mxCell id="toLgnQUWT0Yu2J6poSD1-29" style="rounded=0;orthogonalLoop=1;jettySize=auto;html=1;exitX=0;exitY=0.5;exitDx=0;exitDy=0;dashed=1;dashPattern=8 8;" edge="1" parent="1" source="toLgnQUWT0Yu2J6poSD1-28">
          <mxGeometry relative="1" as="geometry">
            <mxPoint x="120" y="450" as="targetPoint" />
          </mxGeometry>
        </mxCell>
        <mxCell id="toLgnQUWT0Yu2J6poSD1-50" style="edgeStyle=orthogonalEdgeStyle;rounded=0;orthogonalLoop=1;jettySize=auto;html=1;exitX=1;exitY=0.5;exitDx=0;exitDy=0;entryX=0;entryY=0.5;entryDx=0;entryDy=0;" edge="1" parent="1" source="toLgnQUWT0Yu2J6poSD1-28" target="toLgnQUWT0Yu2J6poSD1-49">
          <mxGeometry relative="1" as="geometry" />
        </mxCell>
        <mxCell id="toLgnQUWT0Yu2J6poSD1-28" value="Consulter les points d&#39;intérêts sur une carte" style="ellipse;whiteSpace=wrap;html=1;" vertex="1" parent="1">
          <mxGeometry x="180" y="920" width="120" height="80" as="geometry" />
        </mxCell>
        <mxCell id="toLgnQUWT0Yu2J6poSD1-31" value="Partager un voyage" style="ellipse;whiteSpace=wrap;html=1;" vertex="1" parent="1">
          <mxGeometry x="340" y="610" width="120" height="80" as="geometry" />
        </mxCell>
        <mxCell id="toLgnQUWT0Yu2J6poSD1-33" value="Login" style="ellipse;whiteSpace=wrap;html=1;" vertex="1" parent="1">
          <mxGeometry x="790" y="260" width="120" height="80" as="geometry" />
        </mxCell>
        <mxCell id="toLgnQUWT0Yu2J6poSD1-34" value="Register" style="ellipse;whiteSpace=wrap;html=1;" vertex="1" parent="1">
          <mxGeometry x="750" y="350" width="120" height="80" as="geometry" />
        </mxCell>
        <mxCell id="toLgnQUWT0Yu2J6poSD1-35" value="Mot de passe oublié" style="ellipse;whiteSpace=wrap;html=1;" vertex="1" parent="1">
          <mxGeometry x="630" y="420" width="120" height="80" as="geometry" />
        </mxCell>
        <mxCell id="toLgnQUWT0Yu2J6poSD1-39" style="edgeStyle=orthogonalEdgeStyle;rounded=0;orthogonalLoop=1;jettySize=auto;html=1;exitX=1;exitY=0.5;exitDx=0;exitDy=0;entryX=0;entryY=0.5;entryDx=0;entryDy=0;" edge="1" parent="1" source="toLgnQUWT0Yu2J6poSD1-42" target="toLgnQUWT0Yu2J6poSD1-43">
          <mxGeometry relative="1" as="geometry" />
        </mxCell>
        <mxCell id="toLgnQUWT0Yu2J6poSD1-40" style="rounded=0;orthogonalLoop=1;jettySize=auto;html=1;exitX=1;exitY=1;exitDx=0;exitDy=0;entryX=0;entryY=0.5;entryDx=0;entryDy=0;" edge="1" parent="1" source="toLgnQUWT0Yu2J6poSD1-42" target="toLgnQUWT0Yu2J6poSD1-44">
          <mxGeometry relative="1" as="geometry" />
        </mxCell>
        <mxCell id="toLgnQUWT0Yu2J6poSD1-42" value="Gestion du compte" style="ellipse;whiteSpace=wrap;html=1;" vertex="1" parent="1">
          <mxGeometry x="600" y="605" width="120" height="80" as="geometry" />
        </mxCell>
        <mxCell id="toLgnQUWT0Yu2J6poSD1-43" value="Modifier informations" style="ellipse;whiteSpace=wrap;html=1;" vertex="1" parent="1">
          <mxGeometry x="780" y="500" width="120" height="80" as="geometry" />
        </mxCell>
        <mxCell id="toLgnQUWT0Yu2J6poSD1-44" value="Supprimer le compte" style="ellipse;whiteSpace=wrap;html=1;" vertex="1" parent="1">
          <mxGeometry x="810" y="630" width="120" height="80" as="geometry" />
        </mxCell>
        <mxCell id="toLgnQUWT0Yu2J6poSD1-46" style="edgeStyle=orthogonalEdgeStyle;rounded=0;orthogonalLoop=1;jettySize=auto;html=1;exitX=0;exitY=0.5;exitDx=0;exitDy=0;entryX=1;entryY=0.3333333333333333;entryDx=0;entryDy=0;entryPerimeter=0;dashed=1;dashPattern=8 8;" edge="1" parent="1" source="toLgnQUWT0Yu2J6poSD1-42" target="toLgnQUWT0Yu2J6poSD1-3">
          <mxGeometry relative="1" as="geometry">
            <Array as="points">
              <mxPoint x="600" y="700" />
              <mxPoint x="180" y="700" />
              <mxPoint x="180" y="450" />
            </Array>
          </mxGeometry>
        </mxCell>
        <mxCell id="toLgnQUWT0Yu2J6poSD1-47" value="Ajouter des tags" style="ellipse;whiteSpace=wrap;html=1;" vertex="1" parent="1">
          <mxGeometry x="560" y="880" width="120" height="80" as="geometry" />
        </mxCell>
        <mxCell id="toLgnQUWT0Yu2J6poSD1-49" value="Trier les points d&#39;intérêt" style="ellipse;whiteSpace=wrap;html=1;" vertex="1" parent="1">
          <mxGeometry x="380" y="925" width="120" height="80" as="geometry" />
        </mxCell>
      </root>
    </mxGraphModel>
  </diagram>
</mxfile>
